mtllib materials.mtl
v -0.1705316 0.1616032 0.0833149
v -0.1809297 0.1728094 -0.00188303
v -0.1399615 0.2067699 0.01496983
v -0.221652 0.1090155 0.03734064
v -0.2192323 0.0903039 0.07722855
v -0.2010214 0.08809328 0.1173601
v -0.1718991 0.1029766 0.1469815
v -0.1396685 0.1309652 0.1581559
v -0.1129658 0.1645601 0.1478889
v -0.09894609 0.1947591 0.118932
v -0.1013658 0.2134707 0.07904387
v -0.181356 0.1745608 -0.09305239
v -0.1167568 0.2298305 -0.06346416
v -0.2101674 0.1137202 -0.08946133
v -0.236516 0.0569644 -0.0350399
v -0.2166001 0.01263356 0.1213081
v -0.2508252 0.01678777 0.04588556
v -0.1035256 0.0818665 0.2084057
v -0.1640993 0.02926493 0.1874046
v -0.01183653 0.2226307 0.1199107
v -0.038185 0.165875 0.1743321
v -0.02987206 0.2339087 0.04801273
v -0.07181954 0.2520599 -0.02471256
v -0.1175729 0.1731751 -0.1583934
v -0.02987659 0.2336531 -0.09152699
v -0.2055464 0.04896116 -0.1362395
v -0.2410456 -0.02750564 -0.06291819
v -0.2033807 -0.08517575 0.1422286
v -0.2494922 -0.07957876 0.04061222
v -0.1150666 -0.04279673 0.2147024
v -0.03345585 0.02807307 0.2429969
v 0.03415763 0.113138 0.2170005
v 0.06965685 0.1896048 0.1436789
v 0.06352997 0.2369843 0.04267836
v 0.03790164 0.2425392 -0.01469898
v -0.04613841 0.1496558 -0.2157593
v -0.1492409 0.05221677 -0.2169724
v -0.2026652 -0.0292697 -0.1780376
v -0.2299104 -0.1160599 -0.05295563
v -0.1719304 -0.1526639 0.1128321
v -0.08830142 -0.1350459 0.2084846
v 0.004502892 -0.05445552 0.2406597
v 0.06162524 0.0009539127 0.257374
v 0.1410832 0.1200092 0.1695943
v 0.1118621 0.2385161 -0.05875874
v 0.0395447 0.2095828 -0.1647611
v -0.0305928 0.04151201 -0.2573738
v 0.0548476 0.1270521 -0.2030563
v -0.115992 -0.0743717 -0.2118363
v -0.1480523 -0.1509246 -0.1349316
v -0.141085 -0.2048025 -0.02007818
v -0.09842944 -0.2039224 0.0804801
v -0.02917004 -0.1822481 0.1691606
v 0.0636344 -0.1016579 0.2013359
v 0.1696923 0.01190329 0.1930647
v 0.199773 0.1520319 -0.01447153
v 0.2052654 0.09596443 0.1000018
v 0.1504242 0.1898983 0.06392384
v 0.1405325 0.1615584 -0.1258378
v 0.05493307 -0.01432323 -0.2496433
v -0.02191806 -0.08635247 -0.2440772
v -0.05753219 -0.1668316 -0.1899433
v -0.05244541 -0.2520597 -0.0148201
v -0.07937264 -0.2341219 -0.1060438
v 0.01410484 -0.2238214 0.08582544
v 0.1722434 -0.09061909 0.149544
v 0.08932078 -0.1764702 0.1483636
v 0.2393951 0.004067898 0.07862473
v 0.250825 0.05725193 -0.01393843
v 0.2128978 0.08030152 -0.1203051
v 0.1514478 0.0458138 -0.2050266
v 0.08186996 -0.1011667 -0.2235055
v 0.1424437 -0.04856503 -0.2025046
v 0.04016376 -0.1467364 -0.1994252
v 0.01381516 -0.2034922 -0.1450043
v 0.02619076 -0.2397046 -0.06064796
v 0.06041598 -0.2438588 0.01477432
v 0.1073202 -0.2148415 0.06105328
v 0.167894 -0.1622399 0.08205414
v 0.2180785 -0.0991025 0.06275892
v 0.2486345 -0.007492065 -0.06945992
v 0.2056541 -0.003026247 -0.1420498
v 0.15491 -0.1326983 -0.1622028
v 0.1112516 -0.1635681 -0.152997
v 0.09723186 -0.1937673 -0.1240396
v 0.09965158 -0.2124789 -0.08415174
v 0.1178625 -0.2146893 -0.04402018
v 0.1469848 -0.1998062 -0.01439905
v 0.1792154 -0.1718174 -0.00322485
v 0.2455721 -0.03183317 0.008581161
v 0.2210828 -0.09750998 -0.04220533
v 0.2300332 -0.09170985 -0.0607419
v 0.216831 -0.08602941 -0.1111398
v 0.1829064 -0.10543 -0.1461382
v 0.1660194 -0.1554114 -0.0834589
v 0.20312 -0.1330225 -0.008527756
vn -0.6702079 0.7208541 0.1766087
vn -0.7778754 0.6037493 0.1743464
vn -0.6807794 0.6464053 0.3445281
vn -0.6807794 0.6464053 0.3445281
vn -0.6807794 0.6464053 0.3445281
vn -0.6807794 0.6464053 0.3445281
vn -0.6807794 0.6464053 0.3445281
vn -0.6807794 0.6464053 0.3445281
vn -0.6807794 0.6464053 0.3445281
vn -0.568778 0.7799669 0.261043
vn -0.6546419 0.7557346 0.01758182
vn -0.857427 0.5112481 -0.05868931
vn -0.928911 0.3635016 -0.07064565
vn -0.9859504 0.1200629 0.1161323
vn -0.8870378 0.2047771 0.4138002
vn -0.7458908 0.1874277 0.6391539
vn -0.5636896 0.3505148 0.7479261
vn -0.3617542 0.5233254 0.7715338
vn -0.2400309 0.7276186 0.6426169
vn -0.07223818 0.901279 0.4271742
vn -0.4646224 0.8650144 0.1894098
vn -0.3376458 0.8745235 -0.3481436
vn -0.6974182 0.3862793 -0.6036522
vn -0.9420972 0.1495745 -0.3001336
vn -0.9872905 0.09499335 -0.1274116
vn -0.9107934 -0.03510857 0.4113669
vn -0.7260319 -0.2515759 0.63999
vn -0.3895831 0.08239992 0.9172978
vn -0.1460267 0.3934596 0.9076704
vn 0.05990383 0.6762356 0.7342458
vn -0.005538735 0.9051932 0.4249644
vn -0.02655343 0.9937885 0.1080715
vn 0.1232813 0.7923476 -0.5974839
vn -0.160006 0.8273336 -0.5384396
vn -0.6243647 0.6657416 -0.4086036
vn -0.9395117 0.1338498 -0.3152806
vn -0.9382112 -0.1529009 -0.310453
vn -0.7332916 -0.6712421 0.1082476
vn -0.7058002 -0.2494714 0.6630309
vn -0.2224158 -0.129663 0.9662912
vn 0.2561141 0.09054437 0.9623966
vn 0.5921901 0.3972933 0.7010483
vn 0.6042365 0.7348439 0.3080629
vn 0.08802886 0.9944881 0.0569603
vn -0.074921 0.9738054 -0.2146858
vn 0.1285388 0.4369262 -0.8902658
vn 0.04009433 -0.02999074 -0.9987457
vn -0.1030824 -0.3729991 -0.9220877
vn -0.8787081 -0.4504519 -0.1580031
vn -0.7267005 -0.611193 0.3136069
vn -0.3414767 -0.8161393 0.4661654
vn 0.1524481 -0.5128489 0.8448347
vn 0.4390215 -0.642153 0.6284105
vn 0.4643652 0.3035236 0.8320086
vn 0.6177341 0.7175307 0.3217986
vn 0.4343537 0.8872795 -0.1551513
vn 0.7010904 0.40297 -0.588292
vn 0.2787635 0.3007178 -0.9120635
vn -0.288084 0.2356463 -0.9281586
vn -0.5137553 -0.491364 -0.70329
vn -0.3765539 -0.8472726 -0.3746146
vn -0.4685315 -0.8827422 -0.03527896
vn -0.1786974 -0.9102362 0.3735469
vn 0.4172215 -0.7079616 0.5698391
vn 0.4248863 -0.4214073 0.8011788
vn 0.6703804 0.07730466 0.7379798
vn 0.9207041 0.2782992 0.2735935
vn 0.8618302 0.4630504 -0.2069614
vn 0.5986431 0.4899895 -0.6336693
vn 0.3733604 -0.06035583 -0.9257209
vn 0.2802793 -0.367565 -0.8867578
vn 0.07767291 -0.7085674 -0.7013552
vn 0.1271718 -0.9045488 -0.4069629
vn -0.03622735 -0.9985992 -0.03856257
vn -0.09929795 -0.7946517 0.5988894
vn 0.5009107 -0.7495776 0.4326915
vn 0.7615263 -0.4683892 0.4479836
vn 0.8465686 -0.2473907 0.4712954
vn 0.9932587 -0.0929752 0.06922918
vn 0.8107852 0.3649937 -0.45761
vn 0.6272467 0.1451486 -0.7651753
vn 0.5341832 -0.2995278 -0.790526
vn 0.3064018 -0.6427327 -0.7021486
vn 0.1645865 -0.5907351 -0.7899008
vn 0.1982549 -0.8897908 -0.4110563
vn 0.2895829 -0.9394664 -0.183152
vn 0.4340363 -0.8639912 0.2552095
vn 0.4340363 -0.8639912 0.2552095
vn 0.6770743 -0.6529396 0.3394708
vn 0.9313114 -0.3636099 0.02113914
vn 0.9075838 -0.1602855 0.3880723
vn 0.9677067 0.03747625 -0.2492774
vn 0.748693 -0.1404478 -0.6478682
vn 0.7474022 -0.6028023 -0.2793196
vn 0.5063834 -0.8068772 -0.3041793
vn 0.61594 -0.6751668 -0.4059159
vn 0.6087064 -0.7034542 -0.3669177
vn 0.6194918 -0.7165596 -0.3205809
vn 0.6463466 -0.7103947 -0.2785235
vn 0.682852 -0.68554 -0.252484
vn 0.8108462 -0.53275 -0.242293
vn 0.7786267 -0.5917613 -0.2087078
vn 0.6828997 -0.7231475 0.1034688
vn 0.7258661 -0.636049 -0.2618398
vn 0.697985 -0.6396335 -0.3220031
vn -0.5094556 0.8546032 0.1005407
vn -0.6458915 0.7627088 0.03315807
vn -0.2545731 0.6705718 -0.696797
vn -0.1335713 0.9407018 0.3118314
vn 0.06595559 0.9763995 0.2056545
vn -0.2882507 0.5438548 0.7881203
vn -0.2224148 -0.1296634 0.9662913
vn -0.7918437 -0.5132105 0.3310568
vn 0.129926 -0.9649319 -0.2280914
vn -0.9962667 -0.009082231 -0.08584975
vn -0.9786903 -0.1399676 -0.1502475
vn -0.6533517 0.07287342 0.753539
vn -0.3837273 -0.5132166 0.7676991
vn -0.5670512 -0.8235174 0.01648879
vn -0.360184 -0.8093175 0.4639749
vn -0.9034284 0.4285579 0.01245962
vn -0.683149 0.2837921 -0.6728814
vn -0.5544522 0.2511825 -0.793404
vn -0.0630767 0.9962286 -0.05958145
vn 0.1129816 0.9707272 -0.2119524
vn 0.2628563 0.3791856 -0.8872005
vn -0.2624723 0.8149644 -0.5166637
vn -0.6499212 0.1897638 -0.7359294
vn -0.1065311 -0.2946619 -0.9496449
vn 0.4358748 0.5358347 -0.7231143
vn 0.4750645 -0.1152077 -0.8723765
vn 0.2369936 0.3041851 -0.9226621
vn 0.823648 -0.09352606 -0.559336
vn -0.1721153 -0.3324711 -0.9272751
vn 0.3055537 -0.6482083 -0.6974689
vn 0.734323 -0.1365747 -0.6649188
vn 0.8957664 0.4304489 -0.1109787
vn 0.2923275 0.785551 0.5453937
vn 0.8498898 0.4018395 0.3408994
vn 0.7163619 0.6156117 -0.3284022
vn 0.7486295 0.3237303 0.5785781
vn -0.4507993 0.2024937 0.8693539
vn 0.4324814 -0.3431791 0.8337793
vn 0.9554423 -0.09487966 0.2795134
vn -0.238514 -0.6144106 0.7520708
vn -0.1789358 -0.9143571 0.3632261
vn 0.3675876 -0.2786781 0.887253
vn 0.1415055 -0.9735144 0.1795719
vn 0.1987564 -0.8814746 0.4283672
vn 0.1821863 0.5018398 0.845556
vn 0.4240327 0.8796772 0.2153233
vn 0.8644212 0.4666619 0.1870901
vn 0.3133349 0.6876293 -0.654971
vn 0.9422721 0.005457629 -0.3348041
vn -0.7944125 -0.2314384 -0.5615557
vn 0.03732124 -0.5690604 -0.8214483
vn -0.8169894 -0.3270194 -0.4749594
vn 0.4908361 -0.8699294 0.04798542
vn -0.4648592 -0.6767824 -0.5708515
vn -0.4698085 -0.8582041 0.2067989
vn 0.8535059 -0.5167833 0.06680341
vn 0.8993639 -0.4367828 0.01911473
vn 0.9528037 -0.2277363 0.2007516
vn 0.8298211 -0.2356468 -0.5058335
vn 0.9965872 0.05916641 0.05756014
vn 0.9494176 -0.3084343 -0.05894501
vn -0.1621845 0.4765928 0.8640344
vn -0.2994759 0.9282219 0.2207226
vn 0.36108 0.9308853 0.05544132
vn -0.7894913 0.2287875 0.5695259
vn -0.9226474 0.3846399 0.02781796
vn -0.7965285 0.2618329 -0.5449641
vn -0.3417947 -0.4156828 -0.8428429
vn -0.005796383 -0.7793418 -0.6265721
vn 0.5862886 -0.5741465 0.5715081
vn 0.6518807 -0.2468732 -0.7170114
usemtl mat5
f 3//1 2//1 1//1
f 2//2 4//2 1//2
f 4//3 5//3 1//3
f 5//4 6//4 1//4
f 6//5 7//5 1//5
f 7//6 8//6 1//6
f 8//7 9//7 1//7
f 9//8 10//8 1//8
f 10//9 11//9 1//9
f 11//10 3//10 1//10
f 13//11 12//11 2//11
f 14//12 4//12 2//12
f 14//13 15//13 4//13
f 15//14 5//14 4//14
f 17//15 16//15 6//15 5//15
f 16//16 7//16 6//16
f 19//17 18//17 8//17 7//17
f 18//18 9//18 8//18
f 21//19 20//19 10//19 9//19
f 22//20 11//20 10//20
f 23//21 3//21 11//21
f 25//22 24//22 12//22
f 24//23 26//23 14//23
f 26//24 27//24 15//24 14//24
f 27//25 17//25 15//25
f 29//26 28//26 16//26 17//26
f 30//27 19//27 16//27
f 30//28 31//28 18//28 19//28
f 31//29 32//29 18//29
f 32//30 33//30 20//30 21//30
f 33//31 34//31 22//31
f 34//32 35//32 22//32
f 35//33 13//33 23//33
f 36//34 24//34 25//34
f 36//35 37//35 26//35
f 38//36 27//36 26//36
f 38//37 39//37 27//37
f 39//38 40//38 29//38
f 40//39 41//39 30//39
f 41//40 31//40 30//40
f 42//41 32//41 31//41
f 43//42 33//42 32//42
f 44//43 34//43 33//43
f 45//44 35//44 34//44
f 45//45 46//45 35//45
f 48//46 47//46 46//46
f 49//47 37//47 36//47
f 50//48 38//48 37//48
f 50//49 51//49 38//49
f 51//50 52//50 39//50
f 52//51 53//51 41//51
f 53//52 54//52 42//52 41//52
f 55//53 43//53 42//53
f 55//54 44//54 43//54
f 57//55 56//55 44//55
f 56//56 59//56 58//56
f 48//57 46//57 45//57
f 60//58 47//58 48//58
f 60//59 61//59 49//59
f 62//60 50//60 49//60
f 62//61 51//61 50//61
f 64//62 63//62 51//62
f 63//63 65//63 52//63
f 65//64 54//64 53//64
f 67//65 66//65 54//65
f 66//66 68//66 57//66
f 68//67 69//67 57//67
f 69//68 70//68 56//68
f 70//69 71//69 59//69
f 73//70 72//70 71//70
f 74//71 61//71 60//71
f 74//72 75//72 62//72
f 75//73 76//73 64//73
f 76//74 77//74 64//74
f 77//75 78//75 63//75
f 78//76 79//76 67//76
f 79//77 80//77 66//77
f 80//78 68//78 66//78
f 81//79 69//79 68//79
f 81//80 82//80 69//80
f 82//81 73//81 70//81
f 83//82 72//82 73//82
f 83//83 84//83 74//83
f 84//84 85//84 75//84 74//84
f 85//85 86//85 76//85 75//85
f 86//86 87//86 77//86 76//86
f 87//87 88//87 78//87
f 88//88 89//88 79//88 78//88
f 89//89 80//89 79//89
f 91//90 90//90 80//90
f 91//91 92//91 81//91
f 92//92 93//92 82//92
f 93//93 94//93 82//93
f 95//94 83//94 94//94
f 95//95 84//95 83//95
f 95//96 85//96 84//96
f 95//97 86//97 85//97
f 95//98 87//98 86//98
f 95//99 88//99 87//99
f 95//100 89//100 88//100
f 95//101 96//101 89//101
f 95//102 91//102 96//102
f 95//103 92//103 91//103
f 95//104 93//104 92//104
f 95//105 94//105 93//105
f 23//106 13//106 3//106
f 2//107 3//107 13//107
f 12//108 13//108 25//108
f 22//109 23//109 11//109
f 35//110 23//110 22//110
f 18//111 21//111 9//111
f 41//112 42//112 31//112
f 40//113 28//113 29//113
f 77//114 63//114 64//114
f 27//115 29//115 17//115
f 39//116 29//116 27//116
f 16//117 28//117 30//117
f 30//118 28//118 40//118
f 52//119 40//119 39//119
f 41//120 40//120 52//120
f 2//121 12//121 14//121
f 14//122 12//122 24//122
f 26//123 24//123 36//123
f 35//124 25//124 13//124
f 46//125 25//125 35//125
f 47//126 36//126 46//126
f 25//127 46//127 36//127
f 36//128 47//128 49//128
f 49//129 47//129 60//129
f 71//130 48//130 59//130
f 72//131 60//131 71//131
f 48//132 71//132 60//132
f 73//133 71//133 70//133
f 60//134 72//134 74//134
f 74//135 72//135 83//135
f 94//136 73//136 82//136
f 59//137 45//137 58//137
f 44//138 58//138 34//138
f 56//139 58//139 44//139
f 70//140 59//140 56//140
f 55//141 57//141 44//141
f 42//142 43//142 32//142
f 66//143 55//143 54//143
f 57//144 55//144 66//144
f 65//145 67//145 54//145
f 65//146 53//146 52//146
f 42//147 54//147 55//147
f 78//148 65//148 63//148
f 67//149 65//149 78//149
f 43//150 44//150 33//150
f 34//151 58//151 45//151
f 69//152 56//152 57//152
f 45//153 59//153 48//153
f 82//154 70//154 69//154
f 37//155 49//155 50//155
f 62//156 61//156 74//156
f 62//157 64//157 51//157
f 78//158 77//158 87//158
f 51//159 39//159 38//159
f 63//160 52//160 51//160
f 89//161 96//161 80//161
f 80//162 96//162 91//162
f 80//163 90//163 68//163
f 82//164 81//164 92//164
f 68//165 90//165 81//165
f 81//166 90//166 91//166
f 32//167 21//167 18//167
f 10//168 20//168 22//168
f 22//169 20//169 33//169
f 16//170 19//170 7//170
f 15//171 17//171 5//171
f 26//172 37//172 38//172
f 49//173 61//173 62//173
f 64//174 62//174 75//174
f 66//175 67//175 79//175
f 73//176 94//176 83//176
